<?xml version="1.0" encoding="UTF-8" standalone="no"?>
<svg
   xmlns:dc="http://purl.org/dc/elements/1.1/"
   xmlns:cc="http://creativecommons.org/ns#"
   xmlns:rdf="http://www.w3.org/1999/02/22-rdf-syntax-ns#"
   xmlns:svg="http://www.w3.org/2000/svg"
   xmlns="http://www.w3.org/2000/svg"
   xmlns:sodipodi="http://sodipodi.sourceforge.net/DTD/sodipodi-0.dtd"
   xmlns:inkscape="http://www.inkscape.org/namespaces/inkscape"
   viewBox="0 0 24 24"
   width="24px"
   height="24px"
   version="1.1"
   id="svg66"
   sodipodi:docname="disabled.svg"
   inkscape:version="1.0.2 (e86c870879, 2021-01-15)">
  <metadata
     id="metadata72">
    <rdf:RDF>
      <cc:Work
         rdf:about="">
        <dc:format>image/svg+xml</dc:format>
        <dc:type
           rdf:resource="http://purl.org/dc/dcmitype/StillImage" />
        <dc:title></dc:title>
      </cc:Work>
    </rdf:RDF>
  </metadata>
  <defs
     id="defs70" />
  <sodipodi:namedview
     pagecolor="#ffffff"
     bordercolor="#666666"
     borderopacity="1"
     objecttolerance="10"
     gridtolerance="10"
     guidetolerance="10"
     inkscape:pageopacity="0"
     inkscape:pageshadow="2"
     inkscape:window-width="3840"
     inkscape:window-height="2080"
     id="namedview68"
     showgrid="false"
     inkscape:zoom="34.958333"
     inkscape:cx="4.5625745"
     inkscape:cy="12"
     inkscape:window-x="0"
     inkscape:window-y="51"
     inkscape:window-maximized="1"
     inkscape:current-layer="svg66" />
  <path
     d="M18.239,7.945l1.593-2.39c0.307-0.459,0.183-1.081-0.277-1.387c-0.462-0.308-1.081-0.182-1.387,0.277l-1.679,2.519 C15.117,6.35,13.601,6,12,6S8.883,6.35,7.511,6.964L5.832,4.445C5.526,3.986,4.907,3.86,4.445,4.168 c-0.46,0.306-0.584,0.927-0.277,1.387l1.593,2.39C2.887,9.929,1,13.243,1,17v1c0,1.105,0.895,2,2,2h18c1.105,0,2-0.895,2-2v-1 C23,13.243,21.113,9.929,18.239,7.945z"
     opacity=".35"
     id="path60"
     style="fill:#ffffff;fill-opacity:0.99928004;fill-rule:nonzero;opacity:1;" />
</svg>
