<?xml version="1.0" encoding="UTF-8" standalone="no"?>
<svg
   xmlns:dc="http://purl.org/dc/elements/1.1/"
   xmlns:cc="http://creativecommons.org/ns#"
   xmlns:rdf="http://www.w3.org/1999/02/22-rdf-syntax-ns#"
   xmlns:svg="http://www.w3.org/2000/svg"
   xmlns="http://www.w3.org/2000/svg"
   xmlns:sodipodi="http://sodipodi.sourceforge.net/DTD/sodipodi-0.dtd"
   xmlns:inkscape="http://www.inkscape.org/namespaces/inkscape"
   viewBox="0 0 24 24"
   width="24px"
   height="24px"
   version="1.1"
   id="svg66"
   sodipodi:docname="enabled.svg"
   inkscape:version="1.0.2 (e86c870879, 2021-01-15)">
  <metadata
     id="metadata72">
    <rdf:RDF>
      <cc:Work
         rdf:about="">
        <dc:format>image/svg+xml</dc:format>
        <dc:type
           rdf:resource="http://purl.org/dc/dcmitype/StillImage" />
      </cc:Work>
    </rdf:RDF>
  </metadata>
  <defs
     id="defs70" />
  <sodipodi:namedview
     pagecolor="#ffffff"
     bordercolor="#666666"
     borderopacity="1"
     objecttolerance="10"
     gridtolerance="10"
     guidetolerance="10"
     inkscape:pageopacity="0"
     inkscape:pageshadow="2"
     inkscape:window-width="3840"
     inkscape:window-height="2080"
     id="namedview68"
     showgrid="false"
     inkscape:zoom="34.958333"
     inkscape:cx="4.5625745"
     inkscape:cy="12"
     inkscape:window-x="0"
     inkscape:window-y="51"
     inkscape:window-maximized="1"
     inkscape:current-layer="svg66" />
  <path
     id="path60"
     style="fill:#ffffff;fill-opacity:0.99928004;fill-rule:nonzero;opacity:1;"
     d="M 5.1035156 4.0058594 C 5.0080781 3.9960749 4.9102891 3.9993321 4.8144531 4.0175781 C 4.6866719 4.0419063 4.5608125 4.0909688 4.4453125 4.1679688 C 3.9853125 4.4739688 3.8609687 5.0946875 4.1679688 5.5546875 L 5.7617188 7.9453125 C 2.8877187 9.9293125 1 13.243 1 17 L 1 18 C 1 19.105 1.895 20 3 20 L 21 20 C 22.105 20 23 19.105 23 18 L 23 17 C 23 13.243 21.112281 9.9293125 18.238281 7.9453125 L 19.832031 5.5546875 C 20.139031 5.0956875 20.014688 4.4739688 19.554688 4.1679688 C 19.092688 3.8599688 18.473969 3.9863125 18.167969 4.4453125 L 16.488281 6.9648438 C 15.116281 6.3508438 13.601 6 12 6 C 10.399 6 8.8837186 6.3508437 7.5117188 6.9648438 L 5.8320312 4.4453125 C 5.6599063 4.187125 5.3898281 4.0352127 5.1035156 4.0058594 z M 7.5 13 A 1.5 1.5 0 0 1 9 14.5 A 1.5 1.5 0 0 1 7.5 16 A 1.5 1.5 0 0 1 6 14.5 A 1.5 1.5 0 0 1 7.5 13 z M 16.5 13 A 1.5 1.5 0 0 1 18 14.5 A 1.5 1.5 0 0 1 16.5 16 A 1.5 1.5 0 0 1 15 14.5 A 1.5 1.5 0 0 1 16.5 13 z " />
</svg>
